<svg xmlns="http://www.w3.org/2000/svg" viewBox="0 0 32 32">
  <rect width="32" height="32" rx="7" fill="#15171a"/>
  <!-- outer flame -->
  <path d="M16 29C9 29 5.5 23.5 5.5 18c0-5 3-8.5 5.5-11
           C10.5 10 11 12.5 13 12.5
           C12 9 13.5 5.5 16 2.5
           c1 4.5 2.5 7 5 8.5
           C20 9.5 20.5 7.5 21.5 6.5
           C24 9 26.5 12.5 26.5 18
           C26.5 23.5 23 29 16 29z"
        fill="#e8622a"/>
  <!-- inner flame highlight -->
  <path d="M16 26.5C12 26.5 9.5 23 9.5 19.5
           c0-3 1.5-5 3.5-7
           c0 2 .5 3.5 2 3.5
           C14 13.5 15 11 16.5 8.5
           c.5 3 1.5 5.5 3 6
           C19 13.5 19.5 12 20 11.5
           c1.5 1.5 3 4 3 7
           c0 5-3 8.5-7 8z"
        fill="#ff9340"/>
  <!-- small white tip -->
  <ellipse cx="16" cy="10" rx="1.2" ry="1.8" fill="rgba(255,255,240,0.55)" transform="rotate(-3 16 10)"/>
</svg>
